# xmcd
#
# Track frame offsets:
#	150
#	19213
#	38608
#	51885
#	71915
#	89835
#	105980
#	128890
#	143338
#	161075
#
# Disc length: 2443 seconds
#
# Revision: 0
# Processed by: cddbd v1.4PL0 Copyright (c) Steve Scherf et al.
# Submitted via: EasyCDDAExtractor 4.6.0.1
#
DISCID=8509890a
DTITLE=신해철 - 솔로 1집
DYEAR=1990
DGENRE=가요
TTITLE0=슬픈표정 하지말아요
TTITLE1=떠나보내며
TTITLE2=너무 어려워
TTITLE3=P.M. 7:20
TTITLE4=함께가요
TTITLE5=안녕
TTITLE6=인생이란 이름의 꿈
TTITLE7=연극속에서
TTITLE8=아직도 날 원하나요
TTITLE9=고 백
EXTD=대영에이브이
EXTT0=
EXTT1=
EXTT2=
EXTT3=
EXTT4=
EXTT5=
EXTT6=
EXTT7=
EXTT8=
EXTT9=
PLAYORDER=
